<svg width="219" height="197" viewBox="0 0 219 197" fill="none" xmlns="http://www.w3.org/2000/svg">
<g clip-path="url(#clip0_27_520)">
<path d="M42.1915 169.321C43.315 160.215 48.9135 151.24 57.5287 148.276C54.131 157.651 54.1318 167.935 57.5308 177.309C58.8546 180.919 60.6999 184.796 59.4547 188.434C58.6799 190.698 56.7845 192.431 54.6658 193.513C52.5471 194.597 50.1957 195.113 47.8737 195.619L47.4167 196C43.7306 187.607 41.0681 178.429 42.1915 169.321Z" fill="#237D64"/>
<path d="M57.6142 148.449C52.5971 154.116 49.4788 161.234 48.7022 168.79C48.5065 170.414 48.5657 172.059 48.8779 173.663C49.232 175.217 49.9925 176.647 51.08 177.803C52.0725 178.903 53.2142 179.912 53.9243 181.236C54.2779 181.919 54.4843 182.669 54.5299 183.439C54.5756 184.207 54.4594 184.978 54.1892 185.698C53.5622 187.511 52.3264 188.989 51.068 190.392C49.6709 191.949 48.1952 193.545 47.6013 195.61C47.5293 195.861 47.1484 195.733 47.2203 195.483C48.2536 191.89 51.7128 189.85 53.3626 186.614C54.1324 185.103 54.4555 183.351 53.7339 181.757C53.1027 180.363 51.9265 179.321 50.912 178.217C49.8346 177.104 49.0439 175.741 48.6091 174.25C48.2168 172.666 48.0949 171.027 48.2483 169.401C48.5358 165.737 49.393 162.141 50.7884 158.745C52.3597 154.861 54.5785 151.276 57.3488 148.145C57.5203 147.951 57.7847 148.257 57.6142 148.449Z" fill="white"/>
<path d="M48.8101 166.342C47.5704 166.038 46.478 165.301 45.728 164.261C44.9781 163.22 44.6195 161.944 44.7162 160.662C44.7205 160.61 44.7449 160.562 44.7841 160.527C44.8233 160.492 44.8742 160.474 44.9262 160.477C44.9781 160.48 45.027 160.502 45.0626 160.541C45.0982 160.579 45.1177 160.629 45.1169 160.682C45.0247 161.876 45.3589 163.065 46.0593 164.032C46.7595 165 47.7799 165.682 48.936 165.958C49.1872 166.018 49.0599 166.402 48.8101 166.342Z" fill="white"/>
<path d="M50.5039 177.313C52.7431 175.965 54.396 173.816 55.1332 171.294C55.2061 171.044 55.5869 171.171 55.5142 171.421C54.7423 174.044 53.0175 176.277 50.6844 177.674C50.4619 177.808 50.2826 177.446 50.5039 177.313Z" fill="white"/>
<path d="M52.7318 155.244C53.1872 155.463 53.6893 155.563 54.1929 155.537C54.6965 155.511 55.1858 155.36 55.6169 155.096C55.8377 154.96 56.0167 155.323 55.7974 155.457C55.3197 155.746 54.779 155.913 54.2228 155.943C53.6664 155.973 53.1113 155.864 52.606 155.628C52.5565 155.609 52.5158 155.573 52.4921 155.526C52.4685 155.478 52.4635 155.423 52.4784 155.373C52.4954 155.321 52.5314 155.28 52.5789 155.256C52.6264 155.232 52.6813 155.227 52.7318 155.244Z" fill="white"/>
<path d="M83.7893 164.544C83.6538 164.633 83.5185 164.722 83.3829 164.813C81.5685 166.016 79.8541 167.366 78.2565 168.849C78.1311 168.961 78.0057 169.077 77.8838 169.193C74.0726 172.807 70.9599 177.103 68.7041 181.863C67.8082 183.757 67.0566 185.718 66.4557 187.728C65.6261 190.503 64.9455 193.579 63.3031 195.85C63.1345 196.088 62.9513 196.316 62.7546 196.533H47.9131C47.8794 196.515 47.8456 196.501 47.8116 196.484L47.2191 196.512C47.2429 196.406 47.2698 196.296 47.2937 196.191C47.3072 196.129 47.324 196.067 47.3376 196.006C47.3477 195.966 47.358 195.924 47.3648 195.887C47.368 195.873 47.3715 195.86 47.3748 195.85C47.3816 195.811 47.3919 195.777 47.3986 195.744C47.5476 195.133 47.7011 194.521 47.8591 193.91C47.8591 193.907 47.8591 193.907 47.8624 193.904C49.0223 189.235 50.7272 184.722 52.9416 180.46C53.0094 180.333 53.077 180.204 53.1516 180.078C54.177 178.19 55.3537 176.39 56.6698 174.696C57.3935 173.771 58.1631 172.884 58.9758 172.038C61.0798 169.853 63.5114 168.018 66.1814 166.595C71.5045 163.762 77.6671 162.676 83.356 164.407C83.5014 164.452 83.6437 164.496 83.7893 164.544Z" fill="#237D64"/>
<path d="M83.756 164.734C76.3655 166.213 69.6254 170.003 64.4931 175.565C63.3671 176.743 62.4323 178.092 61.723 179.563C61.078 181.019 60.8314 182.622 61.0087 184.206C61.1447 185.687 61.4537 187.185 61.2305 188.672C61.1049 189.433 60.8214 190.157 60.3986 190.799C59.9758 191.44 59.4233 191.985 58.7772 192.396C57.1937 193.463 55.3245 193.893 53.482 194.25C51.4363 194.645 49.3052 195.023 47.5978 196.312C47.391 196.468 47.1628 196.135 47.3694 195.979C50.3399 193.737 54.3207 194.208 57.5703 192.625C59.0867 191.887 60.3915 190.684 60.7672 188.973C61.0955 187.477 60.7782 185.932 60.6277 184.434C60.4322 182.891 60.6144 181.323 61.1583 179.869C61.791 178.366 62.6727 176.983 63.7657 175.778C66.1835 173.026 69.0153 170.676 72.1572 168.811C75.7315 166.664 79.644 165.148 83.7252 164.331C83.9778 164.28 84.007 164.683 83.756 164.734Z" fill="white"/>
<path d="M66.0411 173.676C65.2325 172.681 64.8009 171.429 64.8235 170.143C64.846 168.857 65.3213 167.622 66.1644 166.656C66.3357 166.462 66.6438 166.72 66.4723 166.916C65.6857 167.813 65.2431 168.965 65.2245 170.162C65.2058 171.359 65.6124 172.525 66.3709 173.446C66.5355 173.647 66.2048 173.875 66.0411 173.676Z" fill="white"/>
<path d="M60.8418 183.465C63.4345 183.747 66.0379 183.035 68.1325 181.469C68.34 181.313 68.5682 181.646 68.3611 181.8C66.1782 183.427 63.4676 184.163 60.7701 183.862C60.513 183.834 60.5861 183.435 60.8418 183.465Z" fill="white"/>
<path d="M75.7999 167.196C76.0333 167.646 76.3739 168.031 76.7915 168.317C77.2089 168.601 77.6901 168.778 78.1917 168.829C78.4491 168.854 78.3757 169.253 78.12 169.227C77.566 169.168 77.0349 168.972 76.573 168.658C76.111 168.345 75.7324 167.922 75.4701 167.426C75.4415 167.381 75.4308 167.327 75.4402 167.275C75.4496 167.222 75.4784 167.176 75.5208 167.145C75.5646 167.114 75.6185 167.103 75.6708 167.112C75.7231 167.122 75.7695 167.152 75.7999 167.196Z" fill="white"/>
<path d="M130.17 38.503H81.0676C79.5501 38.5012 78.0954 37.8927 77.0224 36.811C75.9496 35.7292 75.346 34.2626 75.3444 32.7328V5.76993C75.346 4.24014 75.9496 2.77351 77.0226 1.6918C78.0954 0.610098 79.5503 0.00166705 81.0676 0H130.17C131.687 0.00166602 133.142 0.610093 134.215 1.6918C135.288 2.7735 135.892 4.24014 135.893 5.76992V32.7328C135.892 34.2626 135.288 35.7292 134.215 36.811C133.142 37.8927 131.687 38.5012 130.17 38.503Z" fill="#237D64"/>
<path d="M205.135 38.503H156.033C154.515 38.5012 153.06 37.8927 151.988 36.811C150.915 35.7292 150.312 34.2626 150.31 32.7328V5.76993C150.312 4.24014 150.915 2.77351 151.988 1.6918C153.06 0.610098 154.515 0.00166705 156.033 0H205.135C206.653 0.00166602 208.107 0.610093 209.18 1.6918C210.253 2.7735 210.857 4.24014 210.859 5.76992V32.7328C210.857 34.2626 210.253 35.7292 209.18 36.811C208.107 37.8927 206.653 38.5012 205.135 38.503Z" fill="#E6E6E6"/>
<path d="M55.2048 98.5793H6.10223C4.58484 98.5775 3.13011 97.969 2.05718 96.8873C0.984239 95.8055 0.380719 94.3389 0.379028 92.8091V65.8462C0.380731 64.3165 0.984267 62.8498 2.05721 61.7681C3.13016 60.6865 4.58489 60.0779 6.10223 60.0763H55.2048C56.7221 60.0779 58.1768 60.6865 59.2497 61.7681C60.3227 62.8498 60.9263 64.3165 60.9279 65.8462V92.8091C60.9263 94.3389 60.3227 95.8055 59.2498 96.8873C58.1768 97.969 56.7221 98.5775 55.2048 98.5793Z" fill="#F2F2F2"/>
<path d="M130.17 98.5793H81.0676C79.5501 98.5775 78.0954 97.969 77.0224 96.8873C75.9496 95.8055 75.346 94.3389 75.3444 92.8091V65.8462C75.346 64.3165 75.9496 62.8498 77.0226 61.7681C78.0954 60.6865 79.5503 60.0779 81.0676 60.0763H130.17C131.687 60.0779 133.142 60.6865 134.215 61.7681C135.288 62.8498 135.892 64.3165 135.893 65.8462V92.8091C135.892 94.3389 135.288 95.8055 134.215 96.8873C133.142 97.969 131.687 98.5775 130.17 98.5793Z" fill="#E6E6E6"/>
<path d="M133.637 103.541C138.48 103.541 142.407 99.5822 142.407 94.699C142.407 89.8158 138.48 85.8572 133.637 85.8572C128.794 85.8572 124.867 89.8158 124.867 94.699C124.867 99.5822 128.794 103.541 133.637 103.541Z" fill="#237D64"/>
<path d="M137.279 93.9565H134.297V90.9503C134.297 90.8575 134.279 90.7654 134.244 90.6796C134.209 90.5938 134.157 90.5158 134.091 90.4501C134.027 90.3844 133.949 90.3323 133.864 90.2968C133.778 90.2612 133.687 90.2429 133.595 90.2429C133.503 90.2429 133.413 90.2612 133.327 90.2968C133.242 90.3323 133.164 90.3844 133.099 90.4501C133.034 90.5158 132.982 90.5938 132.947 90.6796C132.912 90.7654 132.894 90.8575 132.894 90.9503V93.9565H129.912C129.82 93.9565 129.729 93.9748 129.644 94.0103C129.558 94.0459 129.482 94.098 129.416 94.1637C129.351 94.2293 129.299 94.3074 129.264 94.3932C129.229 94.479 129.21 94.571 129.21 94.6638C129.21 94.7567 129.229 94.8488 129.264 94.9346C129.299 95.0204 129.351 95.0984 129.416 95.1641C129.482 95.2298 129.558 95.2819 129.644 95.3174C129.729 95.353 129.82 95.3713 129.912 95.3713H132.894V98.3775C132.894 98.4703 132.912 98.5623 132.947 98.6481C132.982 98.7339 133.034 98.812 133.099 98.8777C133.164 98.9433 133.242 98.9954 133.327 99.031C133.413 99.0666 133.503 99.0848 133.595 99.0848C133.782 99.0848 133.96 99.0103 134.091 98.8777C134.223 98.745 134.297 98.5651 134.297 98.3775V95.3713H137.279C137.371 95.3713 137.462 95.353 137.547 95.3174C137.633 95.2819 137.709 95.2298 137.775 95.1641C137.84 95.0983 137.892 95.0204 137.927 94.9346C137.962 94.8488 137.981 94.7567 137.981 94.6638C137.981 94.5709 137.962 94.479 137.927 94.3932C137.892 94.3074 137.84 94.2293 137.775 94.1637C137.709 94.098 137.633 94.0459 137.547 94.0103C137.462 93.9748 137.371 93.9565 137.279 93.9565Z" fill="white"/>
<path d="M209.756 45.0148C214.599 45.0148 218.526 41.0562 218.526 36.1731C218.526 31.2899 214.599 27.3313 209.756 27.3313C204.912 27.3313 200.986 31.2899 200.986 36.1731C200.986 41.0562 204.912 45.0148 209.756 45.0148Z" fill="#237D64"/>
<path d="M213.397 35.4306H210.415V32.4245C210.415 32.3316 210.398 32.2395 210.363 32.1537C210.326 32.0679 210.275 31.9899 210.21 31.9242C210.145 31.8586 210.068 31.8065 209.983 31.7709C209.897 31.7353 209.806 31.717 209.714 31.717C209.622 31.717 209.53 31.7353 209.445 31.7709C209.361 31.8065 209.283 31.8586 209.218 31.9242C209.153 31.9899 209.101 32.0679 209.066 32.1537C209.03 32.2395 209.012 32.3316 209.012 32.4245V35.4306H206.031C205.939 35.4306 205.847 35.449 205.762 35.4844C205.677 35.52 205.599 35.5721 205.535 35.6378C205.469 35.7036 205.418 35.7815 205.383 35.8673C205.347 35.9532 205.329 36.0451 205.329 36.1381C205.329 36.231 205.347 36.3229 205.383 36.4087C205.418 36.4945 205.469 36.5725 205.535 36.6382C205.599 36.7039 205.677 36.756 205.762 36.7915C205.847 36.8271 205.939 36.8454 206.031 36.8454H209.012V39.8516C209.012 39.9445 209.031 40.0365 209.066 40.1223C209.101 40.2082 209.153 40.2861 209.218 40.3518C209.283 40.4175 209.361 40.4696 209.445 40.5051C209.53 40.5407 209.622 40.5589 209.714 40.5589C209.9 40.5589 210.079 40.4844 210.21 40.3518C210.342 40.2191 210.415 40.0392 210.415 39.8516V36.8454H213.397C213.49 36.8454 213.581 36.8271 213.666 36.7915C213.751 36.756 213.828 36.7039 213.894 36.6382C213.959 36.5725 214.01 36.4945 214.045 36.4087C214.081 36.3229 214.099 36.2309 214.099 36.1381C214.099 36.0451 214.081 35.9531 214.045 35.8673C214.01 35.7815 213.959 35.7034 213.894 35.6378C213.828 35.5721 213.751 35.52 213.666 35.4844C213.581 35.4489 213.49 35.4306 213.397 35.4306Z" fill="white"/>
<path d="M58.6717 44.2396C63.5151 44.2396 67.4416 40.281 67.4416 35.398C67.4416 30.5148 63.5151 26.5562 58.6717 26.5562C53.8282 26.5562 49.9019 30.5148 49.9019 35.398C49.9019 40.281 53.8282 44.2396 58.6717 44.2396Z" fill="#237D64"/>
<path d="M62.3135 34.6554H59.3317V31.6492C59.3317 31.5563 59.3137 31.4644 59.2784 31.3785C59.2431 31.2927 59.1915 31.2147 59.1263 31.149C59.0611 31.0833 58.9837 31.0312 58.8986 30.9956C58.8135 30.9602 58.7222 30.9418 58.6302 30.9418C58.538 30.9418 58.4467 30.9602 58.3617 30.9956C58.2765 31.0312 58.1992 31.0833 58.134 31.149C58.0689 31.2147 58.0172 31.2927 57.9819 31.3785C57.9467 31.4644 57.9285 31.5563 57.9285 31.6492V34.6554H54.9467C54.8546 34.6554 54.7634 34.6737 54.6782 34.7093C54.5931 34.7447 54.5158 34.7968 54.4507 34.8626C54.3855 34.9283 54.3338 35.0062 54.2986 35.0921C54.2633 35.1779 54.2451 35.2699 54.2451 35.3628C54.2451 35.5504 54.319 35.7303 54.4507 35.8629C54.5822 35.9956 54.7606 36.0701 54.9467 36.0702H57.9285V39.0763C57.9285 39.1693 57.9467 39.2612 57.9819 39.3471C58.0172 39.4329 58.0689 39.5108 58.134 39.5766C58.1992 39.6423 58.2765 39.6944 58.3617 39.7299C58.4467 39.7654 58.538 39.7838 58.6302 39.7838C58.7222 39.7838 58.8135 39.7654 58.8986 39.7299C58.9837 39.6944 59.0611 39.6423 59.1263 39.5766C59.1915 39.5108 59.2431 39.4329 59.2784 39.3471C59.3137 39.2613 59.3317 39.1693 59.3317 39.0763V36.0701H62.3135C62.4056 36.0701 62.4969 36.0518 62.582 36.0163C62.6671 35.9807 62.7445 35.9286 62.8097 35.8629C62.8748 35.7973 62.9265 35.7192 62.9618 35.6334C62.997 35.5476 63.0151 35.4557 63.0151 35.3628C63.0151 35.1752 62.9412 34.9953 62.8097 34.8625C62.678 34.7299 62.4996 34.6554 62.3135 34.6554Z" fill="white"/>
<path d="M124.33 23.1837C124.489 23.6716 124.542 24.1891 124.482 24.6994C124.423 25.2097 124.252 25.7007 123.984 26.1376C123.715 26.5746 123.355 26.9469 122.929 27.2283C122.502 27.5098 122.02 27.6936 121.515 27.7667L117.461 55.6734L110.808 52.3979L117.499 24.5418C117.433 23.679 117.684 22.8221 118.203 22.1331C118.722 21.4443 119.474 20.9713 120.316 20.8038C121.158 20.6365 122.032 20.7862 122.771 21.2249C123.512 21.6635 124.066 22.3605 124.33 23.1837Z" fill="#9E616A"/>
<path d="M75.8961 112.561C76.1922 112.143 76.3938 111.665 76.4866 111.159C76.5793 110.654 76.561 110.134 76.433 109.637C76.3051 109.139 76.0705 108.676 75.7458 108.28C75.421 107.884 75.0141 107.565 74.5537 107.344L77.2894 77.66L71.5594 80.6212L69.7703 109.226C69.4543 110.03 69.4419 110.923 69.7355 111.736C70.0291 112.549 70.6084 113.226 71.3634 113.637C72.1185 114.048 72.997 114.166 73.8324 113.968C74.6678 113.77 75.4022 113.27 75.8961 112.561Z" fill="#9E616A"/>
<path d="M79.8106 97.5481L104.4 96.5947L105.818 70.8506H77.4463L79.8106 97.5481Z" fill="#9E616A"/>
<path d="M75.247 188.466L79.4488 188.464L81.4475 172.125H75.2462L75.247 188.466Z" fill="#9E616A"/>
<path d="M74.2046 186.375L80.8468 185.976V188.845L87.1618 193.242C87.4737 193.46 87.7086 193.771 87.8322 194.133C87.9559 194.494 87.9617 194.886 87.8489 195.25C87.7361 195.614 87.5105 195.934 87.2052 196.161C86.8998 196.387 86.5307 196.509 86.1516 196.509H78.2439L76.8808 193.671L76.3486 196.509H73.3671L74.2046 186.375Z" fill="#2F2E41"/>
<path d="M93.9358 188.466L98.1378 188.464L100.136 172.125H93.9352L93.9358 188.466Z" fill="#9E616A"/>
<path d="M79.4694 91.5047C79.4694 91.5047 72.1122 97.4931 76.1005 118.88C75.4933 118.953 76.1809 120.159 76.1809 120.159L76.7564 137.585L77.2012 139.582L75.7227 142.805L76.3321 146.306L74.453 178.086L81.3949 178.991L88.038 145.99L89.3032 142.28L90.5722 139.027L89.8877 135.56L90.4491 130.176L94.2787 112.026L95.2163 143.506L93.9081 146.511L94.636 149.81L93.0141 151.561L92.3731 181.014L99.7752 181.363L105.9 151.672L105.425 147.883L106.24 145.082V138.538L107.635 135.451L110.678 118.61C110.678 118.61 111.596 105.448 104.899 89.9602L79.4694 91.5047Z" fill="#2F2E41"/>
<path d="M82.4679 49.4548C82.4679 49.4548 73.1754 51.3077 71.5743 59.2975C69.9731 67.2874 68.943 85.3678 68.943 85.3678L69.2936 87.8857L78.2824 89.9871L84.0196 64.6533L82.4679 49.4548Z" fill="#253D4E"/>
<path d="M103.675 52.1519C103.675 52.1519 104.617 50.8211 109.891 50.6158C110.109 50.6074 109.839 50.173 109.839 50.173L112.377 37.6722L120.831 42.3912L119.403 55.4967L105.512 71.4269L103.675 52.1519Z" fill="#253D4E"/>
<path d="M98.4051 89.4189C94.4251 89.4191 88.4343 88.9763 79.4155 87.6264C78.8346 87.5381 78.297 87.2648 77.881 86.8465C77.4651 86.4282 77.1927 85.8868 77.1037 85.3014C76.8091 84.9878 76.6175 84.5904 76.5549 84.1633C76.4921 83.7361 76.5614 83.2999 76.7534 82.9137L76.7617 82.8972L76.5574 82.6544C76.2413 82.2801 76.0556 81.8116 76.0288 81.3208C76.002 80.83 76.1354 80.3439 76.4087 79.9367L73.6156 59.792C73.3322 57.7914 73.766 55.7547 74.8392 54.048C75.9123 52.3412 77.5543 51.0766 79.4697 50.4815L80.5008 50.1578L84.4 45.0159L84.4768 45.0167L96.9944 45.1849L101.057 50.3855L107.623 51.9467L107.64 52.0473L109.165 60.9285C109.958 65.5478 108.139 67.3649 105.818 71.4269L106.499 82.8354L106.808 83.4015C106.98 83.715 107.037 84.079 106.971 84.4306C106.904 84.7822 106.718 85.0993 106.444 85.327C106.651 85.9238 106.665 86.5714 106.484 87.1767L106.324 87.7119C106.324 87.7272 106.281 87.9447 105.934 88.2102C105.309 88.6889 103.515 89.4189 98.4051 89.4189Z" fill="#253D4E"/>
<path d="M92.8937 186.375L99.5359 185.976V188.845L105.851 193.242C106.163 193.46 106.398 193.771 106.521 194.133C106.645 194.494 106.651 194.886 106.538 195.25C106.425 195.614 106.2 195.934 105.894 196.161C105.589 196.387 105.22 196.509 104.841 196.509H96.933L95.5699 193.671L95.0377 196.509H92.0562L92.8937 186.375Z" fill="#2F2E41"/>
<path d="M99.8699 33.8105C100.738 28.4169 97.105 23.3349 91.7552 22.4597C86.4053 21.5845 81.3647 25.2473 80.4966 30.641C79.6285 36.0346 83.2616 41.1166 88.6113 41.9918C93.9611 42.8671 99.0018 39.2042 99.8699 33.8105Z" fill="#9E616A"/>
<path d="M95.9217 22.5581C92.3249 20.0642 89.1576 19.6843 86.5557 20.3916C86.2185 19.8657 85.7456 19.4422 85.1875 19.1669C83.1584 14.0119 76.983 10.916 71.6835 12.4209C66.3496 13.9356 62.6693 19.8924 63.673 25.3869C64.2949 28.7926 66.4209 31.7418 67.276 35.0957C68.9313 41.5884 64.8934 49.0257 58.5764 51.1186C64.5573 52.3294 71.1409 48.6462 73.2865 42.8888C74.3288 40.0923 74.3916 37.0391 74.5241 34.0548C74.5589 31.9949 74.8092 29.9444 75.2709 27.9375C75.5 27.0371 75.8236 26.164 76.2365 25.3327C77.1357 23.5058 78.629 22.045 80.4675 21.1942C80.303 21.7075 80.2618 22.253 80.3474 22.7855C80.4332 23.3181 80.6432 23.8225 80.9603 24.2571C79.5577 26.0286 78.7942 27.9443 78.7942 29.0916C75.8804 34.4607 80.0472 39.0726 85.3728 42.0102C87.4969 43.188 89.9496 43.6192 92.3437 43.2354L92.5665 42.2765L92.8683 43.1403L93.876 46.036C95.0385 46.603 96.191 47.2246 97.3333 47.9006C96.8993 45.8458 96.5482 43.7948 96.3066 41.7895C95.9721 39.0601 97.1381 34.9968 97.9792 32.5258C98.5008 31.0028 98.7684 29.4033 98.7713 27.7922V27.7218L99.5903 30.374L102.572 29.0916C102.017 25.8839 102.572 22.2424 95.9217 22.5581Z" fill="#2F2E41"/>
<path d="M218.544 197H0.455452C0.33445 196.999 0.218612 196.951 0.133265 196.864C0.0479174 196.778 0 196.661 0 196.538C0 196.417 0.0479174 196.3 0.133265 196.213C0.218612 196.127 0.33445 196.077 0.455452 196.077H218.544C218.666 196.077 218.781 196.127 218.866 196.213C218.952 196.3 219 196.417 219 196.538C219 196.661 218.952 196.778 218.866 196.864C218.781 196.951 218.666 196.999 218.544 197Z" fill="#CCCCCC"/>
<path d="M57.6693 104.703C62.5127 104.703 66.4391 100.744 66.4391 95.861C66.4391 90.9778 62.5127 87.0192 57.6693 87.0192C52.8257 87.0192 48.8993 90.9778 48.8993 95.861C48.8993 100.744 52.8257 104.703 57.6693 104.703Z" fill="#E6E6E6"/>
<path d="M189.621 90.7793H158.862C157.911 90.7782 157 90.397 156.328 89.7194C155.655 89.0418 155.278 88.1229 155.276 87.1646V70.2739C155.278 69.3156 155.655 68.3969 156.328 67.7193C157 67.0416 157.911 66.6604 158.862 66.6594H189.621C190.573 66.6604 191.484 67.0416 192.156 67.7192C192.827 68.3969 193.206 69.3156 193.207 70.2739V87.1646C193.206 88.1229 192.827 89.0418 192.156 89.7194C191.484 90.397 190.573 90.7782 189.621 90.7793Z" fill="#F2F2F2"/>
<path d="M190.075 83.9183C192.647 83.9183 194.733 81.8161 194.733 79.223C194.733 76.6297 192.647 74.5275 190.075 74.5275C187.502 74.5275 185.417 76.6297 185.417 79.223C185.417 81.8161 187.502 83.9183 190.075 83.9183Z" fill="#237D64"/>
<path d="M192.009 78.8286H190.425V77.2322C190.425 77.1828 190.416 77.134 190.396 77.0885C190.378 77.0428 190.35 77.0015 190.316 76.9666C190.281 76.9316 190.241 76.904 190.195 76.8851C190.15 76.8662 190.102 76.8566 190.053 76.8566C189.954 76.8566 189.859 76.8961 189.789 76.9666C189.72 77.037 189.68 77.1326 189.68 77.2322V78.8286H188.097C187.998 78.8286 187.903 78.8683 187.833 78.9386C187.763 79.0091 187.724 79.1047 187.724 79.2044C187.724 79.2536 187.733 79.3025 187.752 79.3481C187.771 79.3937 187.799 79.4351 187.833 79.47C187.868 79.5048 187.909 79.5325 187.955 79.5514C187.999 79.5702 188.048 79.58 188.097 79.58H189.68V81.1765C189.68 81.2258 189.69 81.2746 189.709 81.3201C189.727 81.3658 189.755 81.4072 189.79 81.4421C189.824 81.477 189.865 81.5047 189.91 81.5235C189.955 81.5424 190.003 81.5521 190.053 81.5521C190.151 81.5521 190.246 81.5126 190.316 81.4421C190.387 81.3716 190.425 81.276 190.425 81.1765V79.58H192.009C192.108 79.58 192.202 79.5404 192.272 79.47C192.342 79.3995 192.382 79.304 192.382 79.2044C192.382 79.155 192.372 79.1062 192.353 79.0606C192.335 79.015 192.307 78.9736 192.272 78.9386C192.238 78.9038 192.197 78.8761 192.152 78.8573C192.106 78.8384 192.058 78.8286 192.009 78.8286Z" fill="white"/>
<path d="M202.153 85.9861H176.804C175.729 85.9849 174.697 85.5535 173.936 84.7865C173.175 84.0195 172.747 82.9796 172.746 81.8949V66.6394C172.747 66.4398 172.826 66.2485 172.966 66.1075C173.106 65.9666 173.296 65.8873 173.494 65.8873C173.692 65.8873 173.882 65.9666 174.022 66.1075C174.162 66.2485 174.241 66.4398 174.242 66.6394V70.725L203.686 73.4236C204.274 73.4341 204.835 73.6768 205.247 74.0996C205.66 74.5225 205.891 75.0916 205.892 75.6846C205.892 75.7312 205.887 75.7777 205.879 75.8235L204.395 83.8019C204.374 84.3877 204.13 84.9427 203.712 85.3501C203.293 85.7574 202.735 85.9855 202.153 85.9861ZM174.242 72.2387V81.8949C174.243 82.5799 174.512 83.2366 174.993 83.721C175.474 84.2054 176.125 84.4778 176.804 84.4785H202.153C202.352 84.4783 202.542 84.3989 202.682 84.2576C202.822 84.1163 202.901 83.9247 202.901 83.7248C202.901 83.6782 202.906 83.6317 202.914 83.5859L204.394 75.6265C204.38 75.4372 204.294 75.2606 204.156 75.1317C204.018 75.0027 203.838 74.9311 203.649 74.9308C203.626 74.9308 203.603 74.9298 203.581 74.9277L174.242 72.2387Z" fill="#237D64"/>
<path d="M170.069 93.0212C170.757 93.0212 171.315 92.4587 171.315 91.7649C171.315 91.0711 170.757 90.5087 170.069 90.5087C169.38 90.5087 168.823 91.0711 168.823 91.7649C168.823 92.4587 169.38 93.0212 170.069 93.0212Z" fill="#237D64"/>
<path d="M201.157 93.0212C201.845 93.0212 202.403 92.4587 202.403 91.7649C202.403 91.0711 201.845 90.5087 201.157 90.5087C200.468 90.5087 199.911 91.0711 199.911 91.7649C199.911 92.4587 200.468 93.0212 201.157 93.0212Z" fill="#237D64"/>
<path d="M202.403 90.5087H169.071C168.873 90.5087 168.684 90.4292 168.543 90.2879C168.403 90.1465 168.324 89.9548 168.324 89.7549C168.324 89.555 168.403 89.3632 168.543 89.222C168.684 89.0806 168.873 89.0011 169.071 89.0011H202.403C202.601 89.0011 202.791 89.0806 202.931 89.222C203.072 89.3632 203.15 89.555 203.15 89.7549C203.15 89.9548 203.072 90.1465 202.931 90.2879C202.791 90.4292 202.601 90.5087 202.403 90.5087Z" fill="#237D64"/>
<path d="M175.488 67.1419H169.008C168.811 67.1414 168.62 67.0618 168.481 66.9205C168.341 66.7792 168.262 66.5878 168.262 66.3881C168.262 66.1885 168.341 65.997 168.481 65.8557C168.62 65.7144 168.811 65.6348 169.008 65.6343H175.488C175.686 65.6348 175.876 65.7144 176.016 65.8557C176.155 65.997 176.234 66.1885 176.234 66.3881C176.234 66.5878 176.155 66.7792 176.016 66.9205C175.876 67.0618 175.686 67.1414 175.488 67.1419Z" fill="#237D64"/>
<path d="M180.686 90.1249C180.507 90.1251 180.334 90.0605 180.199 89.9429L175.284 85.6853C175.21 85.6208 175.149 85.5421 175.104 85.4538C175.06 85.3654 175.032 85.2691 175.026 85.1702C175.018 85.0714 175.029 84.972 175.06 84.8779C175.091 84.7837 175.14 84.6964 175.203 84.6212C175.268 84.5462 175.346 84.4844 175.433 84.4397C175.522 84.395 175.617 84.3682 175.715 84.3609C175.813 84.3534 175.912 84.3657 176.005 84.3967C176.098 84.4278 176.184 84.4771 176.259 84.5418L181.173 88.7995C181.289 88.8998 181.371 89.0335 181.41 89.1826C181.448 89.3316 181.44 89.4889 181.387 89.6333C181.334 89.7776 181.238 89.9022 181.113 89.99C180.987 90.0779 180.838 90.125 180.686 90.1249Z" fill="#237D64"/>
<path d="M181.722 85.5231C181.623 85.5231 181.526 85.5036 181.435 85.4658C181.344 85.4279 181.262 85.3724 181.193 85.3024C181.123 85.2324 181.068 85.1492 181.031 85.0579C180.992 84.9664 180.974 84.8684 180.974 84.7695V72.6695C180.974 72.4697 181.053 72.2779 181.193 72.1365C181.333 71.9952 181.522 71.9158 181.722 71.9158C181.92 71.9158 182.109 71.9952 182.25 72.1365C182.39 72.2779 182.469 72.4697 182.469 72.6695V84.7694C182.469 84.8683 182.45 84.9664 182.412 85.0577C182.374 85.1492 182.32 85.2323 182.25 85.3024C182.181 85.3723 182.098 85.4278 182.008 85.4658C181.917 85.5036 181.819 85.5231 181.722 85.5231Z" fill="#237D64"/>
<path d="M197.515 85.523C197.416 85.523 197.319 85.5036 197.228 85.4657C197.137 85.4278 197.055 85.3723 196.986 85.3023C196.916 85.2324 196.861 85.1492 196.824 85.0578C196.786 84.9663 196.767 84.8683 196.767 84.7693V73.6745C196.767 73.4749 196.846 73.2837 196.986 73.1426C197.126 73.0016 197.317 72.9225 197.515 72.9225C197.712 72.9225 197.903 73.0016 198.043 73.1426C198.183 73.2837 198.262 73.4749 198.262 73.6745V84.7693C198.262 84.8682 198.243 84.9663 198.205 85.0577C198.168 85.1492 198.113 85.2322 198.043 85.3023C197.974 85.3722 197.892 85.4277 197.801 85.4657C197.71 85.5036 197.612 85.523 197.515 85.523Z" fill="#237D64"/>
</g>
<defs>
<clipPath id="clip0_27_520">
<rect width="219" height="197" fill="white"/>
</clipPath>
</defs>
</svg>
