<svg width="246" height="197" viewBox="0 0 246 197" fill="none" xmlns="http://www.w3.org/2000/svg">
<g clip-path="url(#clip0_25_364)">
<mask id="mask0_25_364" style="mask-type:luminance" maskUnits="userSpaceOnUse" x="0" y="0" width="246" height="197">
<path d="M246 0H0V197H246V0Z" fill="white"/>
</mask>
<g mask="url(#mask0_25_364)">
<path d="M11.4308 187.72C14.8431 193.791 22.0852 196.397 22.0852 196.397C22.0852 196.397 23.7948 189.161 20.3825 183.089C16.9702 177.019 9.72823 174.413 9.72823 174.413C9.72823 174.413 8.01856 181.65 11.4308 187.72Z" fill="#2F2E41"/>
<path d="M13.7761 185.723C19.9367 189.279 22.3092 196.341 22.3092 196.341C22.3092 196.341 14.6937 197.639 8.53316 194.083C2.37262 190.527 0 183.465 0 183.465C0 183.465 7.61559 182.167 13.7761 185.723Z" fill="#237D64"/>
<path d="M151.896 9.45737H113.459V9.98412H151.896V9.45737Z" fill="#F2F2F2"/>
<path d="M141.464 9.85242H140.914V14.7249H141.464V9.85242Z" fill="#F2F2F2"/>
<path d="M124.716 9.85242H124.166V14.7249H124.716V9.85242Z" fill="#F2F2F2"/>
<path d="M171.389 34.7417H132.952V35.2685H171.389V34.7417Z" fill="#F2F2F2"/>
<path d="M143.935 30.0009H143.385V34.8734H143.935V30.0009Z" fill="#F2F2F2"/>
<path d="M160.682 30.0009H160.132V34.8734H160.682V30.0009Z" fill="#F2F2F2"/>
<path d="M222.457 46.5938H184.019V47.1206H222.457V46.5938Z" fill="#F2F2F2"/>
<path d="M195.002 41.8529H194.452V46.7254H195.002V41.8529Z" fill="#F2F2F2"/>
<path d="M211.749 41.8529H211.2V46.7254H211.749V41.8529Z" fill="#F2F2F2"/>
<path d="M218.613 168.802H180.175V169.329H218.613V168.802Z" fill="#F2F2F2"/>
<path d="M191.158 164.06H190.608V168.934H191.158V164.06Z" fill="#F2F2F2"/>
<path d="M207.906 164.06H207.356V168.934H207.906V164.06Z" fill="#F2F2F2"/>
<path d="M152.995 84.2569H114.557V84.7838H152.995V84.2569Z" fill="#F2F2F2"/>
<path d="M125.539 79.5162H124.99V84.3888H125.539V79.5162Z" fill="#F2F2F2"/>
<path d="M142.286 79.5162H141.738V84.3888H142.286V79.5162Z" fill="#F2F2F2"/>
<path d="M165.075 147.732H126.637V148.259H165.075V147.732Z" fill="#F2F2F2"/>
<path d="M137.62 142.99H137.07V147.863H137.62V142.99Z" fill="#F2F2F2"/>
<path d="M154.367 142.99H153.819V147.863H154.367V142.99Z" fill="#F2F2F2"/>
<path d="M226.575 128.504H188.137V129.031H226.575V128.504Z" fill="#F2F2F2"/>
<path d="M199.12 123.764H198.57V128.636H199.12V123.764Z" fill="#F2F2F2"/>
<path d="M215.867 123.764H215.319V128.636H215.867V123.764Z" fill="#F2F2F2"/>
<path d="M99.405 184.94H34.3945V184.492H98.9371V162.732H39.8598L36.9898 156.995L37.4116 156.802L40.154 162.282H99.405V184.94Z" fill="#2F2E41"/>
<path d="M43.0468 195.933C45.759 195.933 47.9577 193.823 47.9577 191.222C47.9577 188.62 45.759 186.511 43.0468 186.511C40.3346 186.511 38.136 188.62 38.136 191.222C38.136 193.823 40.3346 195.933 43.0468 195.933Z" fill="#253D4E"/>
<path d="M91.454 195.933C94.1663 195.933 96.3649 193.823 96.3649 191.222C96.3649 188.62 94.1663 186.511 91.454 186.511C88.7418 186.511 86.5432 188.62 86.5432 191.222C86.5432 193.823 88.7418 195.933 91.454 195.933Z" fill="#253D4E"/>
<path d="M148.514 94.0857C150.193 94.0857 151.553 92.78 151.553 91.1694C151.553 89.5588 150.193 88.253 148.514 88.253C146.835 88.253 145.473 89.5588 145.473 91.1694C145.473 92.78 146.835 94.0857 148.514 94.0857Z" fill="#253D4E"/>
<path d="M106.358 155.328H33.286L17.4749 105.751H122.641L122.545 106.043L106.358 155.328ZM33.632 154.88H106.015L122.003 106.2H18.1071L33.632 154.88Z" fill="#2F2E41"/>
<path d="M100.654 152.749H36.4722L22.5847 108.779H114.956L114.872 109.038L100.654 152.749Z" fill="#F2F2F2"/>
<path d="M123.951 101.322L123.499 101.207L126.585 90.0477H144.539V90.4965H126.946L123.951 101.322Z" fill="#2F2E41"/>
<path d="M117.386 120.781H22.5844V121.23H117.386V120.781Z" fill="#2F2E41"/>
<path d="M111.957 137.311H27.856V137.76H111.957V137.311Z" fill="#2F2E41"/>
<path d="M70.2904 105.975H69.8228V155.104H70.2904V105.975Z" fill="#2F2E41"/>
<path d="M91.2303 105.961L87.8729 155.089L88.3397 155.118L91.697 105.991L91.2303 105.961Z" fill="#2F2E41"/>
<path d="M48.8926 105.961L48.4258 105.99L51.7636 155.119L52.2304 155.089L48.8926 105.961Z" fill="#2F2E41"/>
<path d="M246 196.217H0V196.744H246V196.217Z" fill="#2F2E41"/>
<path d="M163.472 16.2968C163.472 16.2968 167.485 27.2551 165.016 28.9409C162.546 30.6269 173.351 44.3948 173.351 44.3948L186.318 41.023L179.217 29.5029C179.217 29.5029 178.291 17.9828 178.291 16.2968C178.291 14.611 163.472 16.2968 163.472 16.2968Z" fill="#A0616A"/>
<path opacity="0.1" d="M163.472 16.2968C163.472 16.2968 167.485 27.2551 165.016 28.9409C162.546 30.6269 173.351 44.3948 173.351 44.3948L186.318 41.023L179.217 29.5029C179.217 29.5029 178.291 17.9828 178.291 16.2968C178.291 14.611 163.472 16.2968 163.472 16.2968Z" fill="black"/>
<path d="M156.735 94.4093C156.735 94.4093 155.564 108.458 156.735 115.764C157.907 123.069 159.664 143.3 159.664 143.3C159.664 143.3 159.664 181.513 166.108 182.075C172.552 182.637 177.238 183.199 177.825 180.951C178.41 178.704 174.895 177.579 176.653 176.455C178.41 175.331 178.996 171.397 176.653 166.902C174.31 162.407 176.653 116.888 176.653 116.888L187.783 145.547C187.783 145.547 188.954 169.15 190.126 172.522C191.298 175.894 188.954 182.075 193.055 182.637C197.156 183.199 201.842 179.828 204.185 178.704C206.528 177.58 200.671 177.58 201.842 177.017C203.014 176.455 206.528 174.77 205.357 174.207C204.185 173.646 203.014 146.671 203.014 146.671C203.014 146.671 199.791 89.0707 195.691 86.8228C191.591 84.5749 188.954 88.4467 188.954 88.4467L156.735 94.4093Z" fill="#2F2E41"/>
<path d="M167.28 179.827V184.323C167.28 184.323 162.008 196.543 167.28 196.543C172.552 196.543 176.653 197.81 176.653 196.123V180.951L167.28 179.827Z" fill="#2F2E41"/>
<path d="M201.842 179.819V184.314C201.842 184.314 207.115 196.536 201.842 196.536C196.57 196.536 192.469 197.802 192.469 196.116V180.943L201.842 179.819Z" fill="#2F2E41"/>
<path d="M171.674 24.4452C177.496 24.4452 182.218 19.9164 182.218 14.33C182.218 8.74345 177.496 4.21469 171.674 4.21469C165.85 4.21469 161.129 8.74345 161.129 14.33C161.129 19.9164 165.85 24.4452 171.674 24.4452Z" fill="#A0616A"/>
<path d="M168.452 33.1556C168.452 33.1556 171.381 41.585 176.067 39.8991L180.753 38.2132L188.955 92.1614C188.955 92.1614 182.511 101.153 173.138 95.5332C163.765 89.9135 168.452 33.1556 168.452 33.1556Z" fill="#237D64"/>
<path d="M176.653 31.4698L179.288 26.1312C179.288 26.1312 194.812 33.1556 197.155 35.4035C199.499 37.6513 199.499 41.023 199.499 41.023L195.399 55.0721C195.399 55.0721 196.57 85.9798 196.57 87.1038C196.57 88.2277 200.671 94.4093 197.742 92.1614C194.812 89.9136 194.227 87.6657 191.884 91.0375C189.541 94.4093 184.269 98.343 184.269 98.343L176.653 31.4698Z" fill="#253D4E"/>
<path d="M197.156 71.9308L195.398 87.6657C195.398 87.6657 184.854 96.6571 187.197 97.219C189.541 97.7809 190.712 95.5332 190.712 95.5332C190.712 95.5332 194.812 99.4669 197.156 97.219C199.499 94.9712 205.357 73.6167 205.357 73.6167L197.156 71.9308Z" fill="#A0616A"/>
<path d="M171.897 0.0342054C169.56 -0.0459594 167.059 -0.085614 165.088 1.12281C164.182 1.72925 163.386 2.47617 162.734 3.33296C160.815 5.66082 159.156 8.5898 159.869 11.4781L160.697 11.1682C160.697 11.9392 160.519 12.7005 160.174 13.3971C160.291 13.0718 160.681 13.5977 160.576 13.9267L159.665 16.7977C161.164 16.2704 163.03 17.3381 163.258 18.8546C163.362 15.5199 163.723 11.6961 166.543 9.74347C167.965 8.75878 169.765 8.45818 171.496 8.19125C173.094 7.94498 174.768 7.71016 176.298 8.21465C177.828 8.71913 179.131 10.2203 178.784 11.7363C179.49 11.5031 180.279 11.9748 180.628 12.6076C180.976 13.2405 180.994 13.9871 181.006 14.7028C181.757 15.2127 182.613 14.2003 182.919 13.3672C183.639 11.4118 184.279 9.33033 183.891 7.2903C183.504 5.25027 181.771 3.30071 179.608 3.29379C179.871 3.01733 180.012 2.6538 179.999 2.28011L178.217 2.1357C178.67 2.07426 179.086 1.86388 179.394 1.54058C178.678 2.29568 173.055 0.0738728 171.897 0.0342054Z" fill="#2F2E41"/>
<path d="M171.381 29.7839C171.381 29.7839 166.612 25.301 164.895 25.5755C163.179 25.8502 160.836 29.7839 160.836 29.7839C160.836 29.7839 146.777 34.2796 147.363 38.7753C147.948 43.2709 154.392 65.1873 154.392 65.1873C154.392 65.1873 159.664 91.5995 154.978 94.4093C150.291 97.2191 177.238 104.525 177.825 101.153C178.41 97.7811 179.581 64.0634 177.825 59.0058C176.067 53.9482 171.381 29.7839 171.381 29.7839Z" fill="#253D4E"/>
<path d="M191.884 38.7753H199.127C199.127 38.7753 204.185 60.1297 204.772 62.3776C205.357 64.6254 206.528 75.3026 205.943 75.3026C205.357 75.3026 193.641 73.0549 193.641 74.7407L191.884 38.7753Z" fill="#253D4E"/>
<path d="M191.639 91.6559H163.909C161.203 79.7143 160.976 68.1765 163.909 57.1533H191.639C187.163 67.9783 186.884 79.4369 191.639 91.6559Z" fill="#F2F2F2"/>
<path d="M152.634 76.9885L160.836 80.3602C160.836 80.3602 176.653 82.6081 176.653 76.4265C176.653 70.245 160.836 73.6168 160.836 73.6168L155.563 71.9996L152.634 76.9885Z" fill="#A0616A"/>
<path d="M154.392 35.4035L147.363 37.0894L142.091 66.8733C142.091 66.8733 140.333 74.7407 143.262 75.3026C146.19 75.8646 154.392 80.3602 154.392 80.3602C154.392 80.3602 155.564 71.9309 157.907 71.9309L152.049 67.4352L155.564 47.7666L154.392 35.4035Z" fill="#253D4E"/>
<path d="M54.9789 92.9485H16.5414V93.4753H54.9789V92.9485Z" fill="#F2F2F2"/>
<path d="M27.5236 88.2076H26.9745V93.0802H27.5236V88.2076Z" fill="#F2F2F2"/>
<path d="M44.2712 88.2076H43.7222V93.0802H44.2712V88.2076Z" fill="#F2F2F2"/>
<path d="M68.432 14.9883H29.9945V15.5151H68.432V14.9883Z" fill="#F2F2F2"/>
<path d="M57.999 15.3834H57.45V20.2559H57.999V15.3834Z" fill="#F2F2F2"/>
<path d="M41.2512 15.3834H40.7021V20.2559H41.2512V15.3834Z" fill="#F2F2F2"/>
<path d="M107.144 66.874H68.7065V67.4007H107.144V66.874Z" fill="#F2F2F2"/>
<path d="M96.7111 67.2691H96.162V72.1415H96.7111V67.2691Z" fill="#F2F2F2"/>
<path d="M79.9633 67.2691H79.4142V72.1415H79.9633V67.2691Z" fill="#F2F2F2"/>
<path d="M41.8004 66.6106H3.36292V67.1374H41.8004V66.6106Z" fill="#F2F2F2"/>
<path d="M31.3673 67.0056H30.8182V71.8782H31.3673V67.0056Z" fill="#F2F2F2"/>
<path d="M14.6195 67.0056H14.0704V71.8782H14.6195V67.0056Z" fill="#F2F2F2"/>
<path d="M87.9253 40.2727H49.4878V40.7994H87.9253V40.2727Z" fill="#F2F2F2"/>
<path d="M60.47 35.5319H59.9209V40.4043H60.47V35.5319Z" fill="#F2F2F2"/>
<path d="M77.2178 35.5319H76.6687V40.4043H77.2178V35.5319Z" fill="#F2F2F2"/>
</g>
</g>
<defs>
<clipPath id="clip0_25_364">
<rect width="246" height="197" fill="white"/>
</clipPath>
</defs>
</svg>
