<svg width="288" height="234" viewBox="0 0 288 234" fill="none" xmlns="http://www.w3.org/2000/svg">
<g clip-path="url(#clip0_27_465)">
<path d="M15.0262 233.476C15.0069 233.362 13.1436 221.88 16.949 212.343C20.7543 202.806 28.8774 198.6 28.959 198.559L29.3303 198.371L29.418 198.894C29.4371 199.008 31.3005 210.49 27.4951 220.027C23.6899 229.564 15.5667 233.77 15.4851 233.811L15.1137 234L15.0262 233.476ZM28.8211 199.647C27.194 200.592 20.7723 204.732 17.5583 212.786C14.344 220.842 15.3137 230.369 15.623 232.723C17.2494 231.78 23.6686 227.647 26.8857 219.584C30.0999 211.529 29.1305 202.003 28.8211 199.647Z" fill="#237D64"/>
<path d="M24.587 216.683C17.7486 222.243 15.1149 233.286 15.1149 233.286C15.1149 233.286 23.5685 235.315 30.4071 229.756C37.2455 224.195 39.8793 213.152 39.8793 213.152C39.8793 213.152 31.4256 211.122 24.587 216.683Z" fill="#237D64"/>
<path d="M128.148 127.553C128.252 126.825 128.237 126.076 128.103 125.357C127.97 124.638 127.722 123.968 127.376 123.393C127.031 122.818 126.596 122.352 126.102 122.029C125.609 121.705 125.069 121.532 124.521 121.521L121.354 110.759L116.045 111.765L120.675 126.878C120.723 128.124 121.107 129.303 121.754 130.192C122.402 131.081 123.268 131.617 124.19 131.701C125.111 131.784 126.022 131.407 126.752 130.643C127.481 129.878 127.978 128.779 128.148 127.553Z" fill="#FFB531"/>
<path d="M118.367 123.771L116.722 118.47L106.47 92.1008L107.028 43.308L107.135 43.2888C113.694 42.1177 118.132 82.9603 118.318 84.6997L124.795 114.634L126.337 121.232L118.367 123.771Z" fill="#237D64"/>
<path d="M102.616 226.658H107.6L109.97 200.678L102.615 200.68L102.616 226.658Z" fill="#FFB531"/>
<path d="M101.344 224.46L111.159 224.459C112.818 224.459 114.41 225.349 115.583 226.935C116.756 228.52 117.415 230.67 117.415 232.912V233.187H101.344L101.344 224.46Z" fill="#253D4E"/>
<path d="M56.7881 216.396L60.8775 220.247L73.8142 200.765L67.7787 195.081L56.7881 216.396Z" fill="#FFB531"/>
<path d="M56.6753 213.61L64.7285 221.193L64.729 221.194C66.0899 222.475 67.0184 224.435 67.3102 226.642C67.6019 228.849 67.233 231.122 66.2846 232.962L66.1684 233.187L52.983 220.77L56.6753 213.61Z" fill="#253D4E"/>
<path d="M99.8761 220.552L99.6608 171.816L96.5248 141.172L90.678 168.12L90.6666 168.144L69.4786 209.712L61.2341 204.067L61.2792 203.922C61.7831 202.302 73.6554 164.267 76.8466 164.267C77.1252 164.293 77.4045 164.227 77.6602 164.075C77.916 163.923 78.1406 163.69 78.3147 163.395C79.2513 161.704 78.4886 158.118 78.4807 158.082C77.5672 152.963 79.8641 151.22 80.3216 150.929L81.5521 116.603L81.6797 116.615L115.037 119.777L113.637 162.693L110.627 218.922L110.524 218.938L99.8761 220.552Z" fill="#253D4E"/>
<path d="M115.546 127.383L115.402 127.367L79.5273 123.459L79.6159 107.418L81.3718 65.5349L81.3818 65.5058L88.5325 44.5268L93.6015 41.425L100.997 40.8991L101.015 40.9053L107.764 43.165L114.785 111.275L115.546 127.383Z" fill="#237D64"/>
<path d="M102.156 35.5227C106.733 32.1412 108.415 24.3856 105.913 18.1999C103.411 12.0143 97.6719 9.74095 93.0946 13.1224C88.5173 16.5037 86.835 24.2594 89.3373 30.445C91.8395 36.6308 97.5786 38.9041 102.156 35.5227Z" fill="#FFB531"/>
<path d="M88.1262 27.5266V22.5534C88.1262 22.5534 85.1583 17.8298 88.423 16.6399C88.423 16.6399 89.3133 4.74109 97.0297 10.2939C97.0297 10.2939 107.714 7.9141 106.527 16.2433C106.527 16.2433 109.198 14.0688 108.308 19.6215L106.586 28.5661C106.586 28.5661 107.417 22.6576 104.746 21.8642L103.262 20.6745C103.262 20.6745 99.1072 26.2272 92.8747 19.4846C92.8747 19.4846 90.2037 18.623 90.5005 22.1927C90.7972 25.7622 88.1262 27.5266 88.1262 27.5266Z" fill="#253D4E"/>
<path d="M96.6418 115.404C96.6477 114.663 96.5334 113.929 96.3069 113.255C96.0804 112.58 95.7472 111.981 95.3306 111.499C94.9141 111.017 94.4245 110.664 93.8962 110.466C93.368 110.267 92.8139 110.228 92.2732 110.35L87.7285 100.53L82.6393 102.807L89.2012 116.552C89.4133 117.766 89.9476 118.833 90.7028 119.551C91.4581 120.268 92.3819 120.586 93.299 120.444C94.2162 120.303 95.063 119.712 95.6792 118.783C96.2952 117.854 96.6378 116.651 96.6418 115.404Z" fill="#FFB531"/>
<path d="M84.9041 112.309L76.6823 89.751L76.6896 89.6962C76.7227 89.4464 80.0323 64.6135 82.5635 55.4856C85.1107 46.3 88.5974 44.4558 88.7446 44.3818L88.8181 44.3448L91.9444 48.3972L87.6137 87.46L92.2818 106.299L84.9041 112.309Z" fill="#237D64"/>
<path d="M288 0H272.081V21.5126H288V0Z" fill="#F1F1F1"/>
<path d="M163.416 83.7123H147.496V105.225H163.416V83.7123Z" fill="#F1F1F1"/>
<path d="M156.432 95.7981H282.288V9.69659H156.432V95.7981Z" fill="white"/>
<path d="M283.326 97.2011H155.393V8.29352H283.326V97.2011ZM157.47 94.3952H281.249V11.0995H157.47V94.3952Z" fill="#E5E5E5"/>
<path d="M268.37 39.8994H171.539V44.2389H268.37V39.8994Z" fill="#E5E5E5"/>
<path d="M268.37 50.4233H171.539V54.7629H268.37V50.4233Z" fill="#E5E5E5"/>
<path d="M268.37 65.9623H250.374V69.7282H268.37V65.9623Z" fill="#237D64"/>
<path d="M132.198 233.981H0.346068C0.254285 233.981 0.166261 233.931 0.101361 233.844C0.0364604 233.757 0 233.637 0 233.513C0 233.39 0.0364604 233.27 0.101361 233.182C0.166261 233.095 0.254285 233.046 0.346068 233.046H132.198C132.29 233.046 132.378 233.095 132.443 233.182C132.508 233.27 132.544 233.39 132.544 233.513C132.544 233.637 132.508 233.757 132.443 233.844C132.378 233.931 132.29 233.981 132.198 233.981Z" fill="#CBCBCB"/>
</g>
<defs>
<clipPath id="clip0_27_465">
<rect width="288" height="234" fill="white"/>
</clipPath>
</defs>
</svg>
