<svg width="44" height="44" viewBox="0 0 44 44" fill="none" xmlns="http://www.w3.org/2000/svg">
<circle cx="22" cy="22" r="22" fill="#3BB77E"/>
<path d="M19.696 23.2481C19.624 23.2481 18.04 23.2481 17.32 23.2481C16.936 23.2481 16.816 23.1041 16.816 22.7441C16.816 21.7841 16.816 20.8001 16.816 19.8401C16.816 19.4561 16.96 19.3361 17.32 19.3361H19.696C19.696 19.2641 19.696 17.8721 19.696 17.2241C19.696 16.2641 19.864 15.3521 20.344 14.5121C20.848 13.6481 21.568 13.0721 22.48 12.7361C23.08 12.5201 23.68 12.4241 24.328 12.4241H26.68C27.016 12.4241 27.16 12.5681 27.16 12.9041V15.6401C27.16 15.9761 27.016 16.1201 26.68 16.1201C26.032 16.1201 25.384 16.1201 24.736 16.1441C24.088 16.1441 23.752 16.4561 23.752 17.1281C23.728 17.8481 23.752 18.5441 23.752 19.2881H26.536C26.92 19.2881 27.064 19.4321 27.064 19.8161V22.7201C27.064 23.1041 26.944 23.2241 26.536 23.2241C25.672 23.2241 23.824 23.2241 23.752 23.2241V31.0481C23.752 31.4561 23.632 31.6001 23.2 31.6001C22.192 31.6001 21.208 31.6001 20.2 31.6001C19.84 31.6001 19.696 31.4561 19.696 31.0961C19.696 28.5761 19.696 23.3201 19.696 23.2481Z" fill="#262626"/>
</svg>
