<svg width="45" height="44" viewBox="0 0 45 44" fill="none" xmlns="http://www.w3.org/2000/svg">
<circle cx="22.6667" cy="22" r="22" fill="#3BB77E"/>
<g clip-path="url(#clip0_36_1145)">
<path d="M34.6643 17.0685C34.608 15.791 34.4014 14.9128 34.1055 14.1518C33.8002 13.344 33.3305 12.6208 32.7152 12.0196C32.114 11.409 31.386 10.9346 30.5875 10.6341C29.8221 10.3381 28.9485 10.1315 27.671 10.0752C26.384 10.0141 25.9754 10 22.7113 10C19.4471 10 19.0385 10.0141 17.7563 10.0705C16.4788 10.1268 15.6006 10.3335 14.8397 10.6293C14.0318 10.9346 13.3086 11.4042 12.7073 12.0196C12.0968 12.6208 11.6225 13.3488 11.3218 14.1472C11.0259 14.9128 10.8193 15.7863 10.763 17.0637C10.7019 18.3507 10.6878 18.7593 10.6878 22.0235C10.6878 25.2877 10.7019 25.6962 10.7582 26.9785C10.8145 28.2559 11.0213 29.1342 11.3172 29.8952C11.6225 30.703 12.0968 31.4262 12.7073 32.0274C13.3086 32.638 14.0365 33.1124 14.835 33.4129C15.6006 33.7088 16.474 33.9154 17.7517 33.9717C19.0337 34.0283 19.4425 34.0422 22.7067 34.0422C25.9709 34.0422 26.3794 34.0283 27.6617 33.9717C28.9391 33.9154 29.8174 33.7088 30.5782 33.4129C32.194 32.7882 33.4714 31.5108 34.0961 29.8952C34.3918 29.1296 34.5986 28.2559 34.6549 26.9785C34.7113 25.6962 34.7254 25.2877 34.7254 22.0235C34.7254 18.7593 34.7206 18.3507 34.6643 17.0685ZM32.4992 26.8845C32.4475 28.0587 32.2503 28.6928 32.0859 29.1155C31.6819 30.1629 30.8506 30.9941 29.8032 31.3981C29.3805 31.5625 28.7419 31.7597 27.5723 31.8113C26.3042 31.8678 25.9239 31.8817 22.716 31.8817C19.5082 31.8817 19.1231 31.8678 17.8596 31.8113C16.6854 31.7597 16.0513 31.5625 15.6286 31.3981C15.1074 31.2055 14.633 30.9002 14.2479 30.501C13.8487 30.1111 13.5434 29.6415 13.3508 29.1202C13.1864 28.6975 12.9891 28.0587 12.9376 26.8893C12.8811 25.6212 12.8671 25.2407 12.8671 22.0328C12.8671 18.825 12.8811 18.4399 12.9376 17.1766C12.9891 16.0024 13.1864 15.3683 13.3508 14.9456C13.5434 14.4242 13.8487 13.95 14.2527 13.5647C14.6423 13.1655 15.112 12.8602 15.6334 12.6677C16.0561 12.5034 16.6949 12.3061 17.8643 12.2544C19.1324 12.1981 19.5129 12.184 22.7206 12.184C25.9332 12.184 26.3136 12.1981 27.5771 12.2544C28.7513 12.3061 29.3853 12.5034 29.808 12.6677C30.3292 12.8602 30.8037 13.1655 31.1888 13.5647C31.588 13.9546 31.8933 14.4242 32.0859 14.9456C32.2503 15.3683 32.4475 16.007 32.4992 17.1766C32.5556 18.4447 32.5697 18.825 32.5697 22.0328C32.5697 25.2407 32.5556 25.6164 32.4992 26.8845Z" fill="#262626"/>
<path d="M22.7113 15.8474C19.3016 15.8474 16.5351 18.6137 16.5351 22.0235C16.5351 25.4334 19.3016 28.1997 22.7113 28.1997C26.1211 28.1997 28.8874 25.4334 28.8874 22.0235C28.8874 18.6137 26.1211 15.8474 22.7113 15.8474ZM22.7113 26.0298C20.4992 26.0298 18.705 24.2357 18.705 22.0235C18.705 19.8113 20.4992 18.0172 22.7113 18.0172C24.9235 18.0172 26.7176 19.8113 26.7176 22.0235C26.7176 24.2357 24.9235 26.0298 22.7113 26.0298Z" fill="#262626"/>
<path d="M30.5736 15.6032C30.5736 16.3995 29.928 17.0451 29.1316 17.0451C28.3353 17.0451 27.6897 16.3995 27.6897 15.6032C27.6897 14.8068 28.3353 14.1614 29.1316 14.1614C29.928 14.1614 30.5736 14.8068 30.5736 15.6032Z" fill="#262626"/>
</g>
<defs>
<clipPath id="clip0_36_1145">
<rect width="24" height="24.0423" fill="white" transform="translate(10.6667 10)"/>
</clipPath>
</defs>
</svg>
