<svg width="45" height="44" viewBox="0 0 45 44" fill="none" xmlns="http://www.w3.org/2000/svg">
<circle cx="22.3333" cy="22" r="22" fill="#3BB77E"/>
<path d="M31.9333 31.5999V24.5679C31.9333 21.1119 31.1893 18.4719 27.1573 18.4719C25.2133 18.4719 23.9173 19.5279 23.3893 20.5359H23.3413V18.7839H19.5253V31.5999H23.5093V25.2399C23.5093 23.5599 23.8213 21.9519 25.8853 21.9519C27.9253 21.9519 27.9493 23.8479 27.9493 25.3359V31.5759H31.9333V31.5999Z" fill="#262626"/>
<path d="M13.0453 18.7839H17.0293V31.5999H13.0453V18.7839Z" fill="#262626"/>
<path d="M15.0373 12.3999C13.7653 12.3999 12.7333 13.4319 12.7333 14.7039C12.7333 15.9759 13.7653 17.0319 15.0373 17.0319C16.3093 17.0319 17.3413 15.9759 17.3413 14.7039C17.3413 13.4319 16.3093 12.3999 15.0373 12.3999Z" fill="#262626"/>
</svg>
