<svg width="36" height="38" viewBox="0 0 36 38" fill="none" xmlns="http://www.w3.org/2000/svg">
<path d="M13.2844 20.1273C12.6369 20.3787 11.9057 20.1045 11.5857 19.4875L5.64434 8.04647C4.95117 6.69061 5.47676 5.03768 6.83262 4.34452C6.91641 4.30643 6.99258 4.26834 7.07637 4.23026C8.60742 3.61327 10.2908 4.51209 10.7174 6.066L10.725 6.08885L14.0994 18.5125C14.2746 19.1752 13.9242 19.876 13.2844 20.1273Z" fill="#F98500"/>
<path d="M12.9645 14.3611L11.2811 15.0238C10.9688 15.1381 10.6184 14.9857 10.4889 14.6734C10.367 14.3611 10.5193 14.0031 10.8316 13.8813L12.6369 13.1729L12.9645 14.3611Z" fill="#FA6D00"/>
<path d="M13.6195 16.7453L12.1723 17.2861C11.86 17.3927 11.5172 17.248 11.3801 16.9357C11.2582 16.6234 11.4105 16.2654 11.7305 16.1435L13.2996 15.557L13.6195 16.7453Z" fill="#FA6D00"/>
<path d="M20.4521 8.93777C19.9418 8.58738 19.6828 7.97039 19.7971 7.3534C20.0789 5.9366 19.1648 4.55789 17.7404 4.26844C17.7252 4.26844 17.7023 4.26082 17.6871 4.26082C17.1006 4.1618 16.6131 3.74285 16.4303 3.17156C16.3846 3.03445 16.3312 2.89734 16.2703 2.76785C15.6229 1.47293 14.0537 0.947344 12.7588 1.59481C11.5324 2.20418 10.984 3.65906 11.502 4.92352C11.7686 5.57859 11.898 6.17273 11.4486 6.80496C10.6107 7.98563 10.8926 9.62332 12.0732 10.4536C12.0809 10.4612 12.0961 10.4688 12.1037 10.4764C12.6141 10.8345 12.8578 11.4591 12.7359 12.0684C12.4617 13.4852 13.391 14.8639 14.8154 15.1382C16.0951 15.3819 17.352 14.6583 17.7861 13.4319C19.0811 14.0794 20.6502 13.5462 21.2977 12.2589C21.8766 11.0934 21.5186 9.68426 20.4521 8.93777Z" fill="#598C44"/>
<path d="M26.3936 11.0325C26.0508 10.5145 26.0432 9.84419 26.3783 9.31861C27.1781 8.11509 26.843 6.48501 25.6395 5.68521C25.6242 5.67759 25.609 5.66236 25.5938 5.65474C24.8473 5.18247 24.9006 4.51216 24.8397 3.74283C24.733 2.30318 23.4686 1.22154 22.0289 1.32818C20.6654 1.43482 19.6066 2.56978 19.6066 3.94087C19.6066 4.64927 19.5 5.24341 18.8525 5.66236C17.6338 6.43931 17.2758 8.06177 18.0604 9.28052C18.068 9.28814 18.0756 9.30337 18.0832 9.31099C18.4184 9.83658 18.4184 10.5069 18.068 11.0249C17.2834 12.236 17.6262 13.8584 18.8373 14.6506C19.9266 15.359 21.3738 15.161 22.227 14.186C23.1867 15.2676 24.8397 15.3743 25.9213 14.4221C26.8963 13.569 27.0943 12.1217 26.3936 11.0325Z" fill="#5F9548"/>
<path d="M30.4687 18.3907L23.1562 15.9532L27.1857 3.87235C27.6732 2.41747 29.1586 1.29012 30.7049 1.32821C31.6646 1.35106 32.5635 1.53387 33.3176 2.14325C34.5363 3.11825 35.0162 4.74833 34.5211 6.22606L30.4687 18.3907Z" fill="#FFB531"/>
<path d="M25.5938 12.2969V34.2344H7.3125V12.2969L9.14062 13.5156L10.9688 12.2969L12.7969 13.5156L14.625 12.2969L16.4531 13.5156L18.2812 12.2969L20.1094 13.5156L21.9375 12.2969L23.7656 13.5156L25.5938 12.2969Z" fill="#FFB531"/>
<path d="M25.5938 17.347V34.2343H7.3125V30.54C14.0232 28.2853 20.673 24.1797 25.5938 17.347Z" fill="#FCAC1F"/>
<path d="M32.9062 12.2969V34.2344H25.5938V12.2969L27.4219 13.5156L29.25 12.2969L31.0781 13.5156L32.9062 12.2969Z" fill="#F98500"/>
<path d="M7.42676 36.6719C10.1191 36.6719 12.3018 34.4893 12.3018 31.7969C12.3018 29.1045 10.1191 26.9219 7.42676 26.9219C4.73437 26.9219 2.55176 29.1045 2.55176 31.7969C2.55176 34.4893 4.73437 36.6719 7.42676 36.6719Z" fill="#F35244"/>
<path d="M17.6719 23.875L18.2812 25.0938C17.5271 25.8479 17.2225 26.9447 17.4814 27.9883L17.6719 28.75H15.2344V27.8207C15.2344 26.1525 16.1789 24.6215 17.6719 23.875Z" fill="#5F9548"/>
<path d="M14.0994 36.6719C13.3301 36.6719 12.6445 36.1691 12.4236 35.4303L11.0525 30.8523C10.6717 29.5803 11.5096 28.1406 12.9188 28.1406C13.6043 28.1406 14.2365 28.4986 14.5869 29.0852L15.8438 31.1875V34.9275C15.8438 35.8873 15.0592 36.6719 14.0994 36.6719Z" fill="#FA9F0C"/>
<path d="M18.8068 36.6719C19.5762 36.6719 20.2617 36.1691 20.4826 35.4303L21.8537 30.8523C22.2422 29.565 21.3891 28.1406 19.9875 28.1406C19.302 28.1406 18.6697 28.4986 18.3193 29.0852L17.0625 31.1875V34.9275C17.0625 35.8873 17.8471 36.6719 18.8068 36.6719Z" fill="#FA9F0C"/>
<path d="M16.4531 28.1406C17.4662 28.1406 18.2812 28.9557 18.2812 29.9688V34.8438C18.2812 35.8568 17.4662 36.6719 16.4531 36.6719C15.44 36.6719 14.625 35.8568 14.625 34.8438V29.9688C14.625 28.9557 15.44 28.1406 16.4531 28.1406Z" fill="#FFB531"/>
<path d="M33.6984 1.67092C32.5711 0.764478 31.0248 0.490259 29.5547 0.916821C28.1227 1.33577 27.0486 2.34885 26.6068 3.68186L24.1465 11.0705L23.857 10.644L22.8363 11.3219V8.86155L24.5273 7.7342L23.8494 6.72112L22.8287 7.39905V4.60354H21.61V7.39143L20.5969 6.7135L19.919 7.72659L21.61 8.85393V11.3143L20.5969 10.6364L19.919 11.6494L20.8559 12.274L20.1018 12.7768L18.6088 11.7865C18.5402 11.7408 18.4717 11.7104 18.3955 11.6951C18.4412 11.5809 18.5022 11.4666 18.5707 11.36C19.043 10.6364 19.043 9.70706 18.5783 8.97581C18.1518 8.32834 18.167 7.36096 18.6088 6.7135C18.7992 6.43928 19.5762 5.88323 19.7818 5.60901C20.1856 5.07581 20.2313 4.46643 20.277 3.93323C20.3074 3.51428 20.3379 3.14866 20.5207 2.86682C21.1072 1.92991 22.3488 1.64807 23.2857 2.23459C23.4838 2.35647 23.6514 2.51643 23.7961 2.69163C24.1236 3.10295 24.1541 3.51428 24.1922 4.07034C24.2074 4.26077 24.2227 4.46643 24.2455 4.67971L25.4566 4.52737C25.4338 4.34456 25.4186 4.16174 25.4109 3.98655C25.3652 3.32385 25.3119 2.64592 24.7559 1.93752C23.6514 0.535962 21.6252 0.299829 20.2236 1.3967C19.9342 1.62522 19.6828 1.89944 19.4848 2.21174C19.1496 2.74495 19.1039 3.32385 19.0582 3.82659C19.0506 3.94084 19.043 4.04748 19.0277 4.15413C18.6545 3.90276 18.2279 3.72756 17.7785 3.64377C17.4129 3.58284 17.1082 3.32385 16.9939 2.97346C16.7273 2.14319 16.1484 1.45764 15.3715 1.06155C14.6098 0.657837 13.7186 0.581665 12.8959 0.848267C11.6848 1.25198 10.8012 2.38694 10.6945 3.68948C10.6564 4.18459 10.7783 4.61877 10.9002 5.00725C10.3289 4.07034 9.33106 3.4762 8.23418 3.40764L8.25703 0.70354L7.03828 0.695923L7.02305 2.45549L6.2918 0.581665L5.17969 1.04631L5.91094 2.92014L4.70742 1.64045L3.82383 2.47073L5.67481 4.4512C4.66934 5.48713 4.4332 7.04104 5.10352 8.32073L6.36797 10.7582L7.44961 10.1946L6.18516 7.75706C5.64434 6.7135 6.04805 5.4262 7.0916 4.88538C8.13516 4.34455 9.42246 4.74827 9.96328 5.79182C10.0318 5.92893 10.0852 6.06604 10.1309 6.21838L10.1537 6.29456L8.18848 7.06389L8.63028 8.19885L10.4736 7.48284V7.49045C10.3594 7.92463 10.3289 8.37405 10.4051 8.82346L9.07969 9.34143L9.52149 10.4764L10.8316 9.96604C11.1363 10.4764 11.6619 10.9487 11.6619 10.9487L9.96328 11.6114L10.1613 12.1065L9.14824 12.7844L7.65528 11.7942C7.37344 11.6037 7.0002 11.6799 6.80977 11.9617C6.74121 12.0608 6.71074 12.1826 6.71074 12.2969V25.0938H7.92949V13.4319L8.81309 14.0184C9.01875 14.1555 9.28535 14.1555 9.49102 14.0184L10.984 13.0281L12.477 14.0184C12.6826 14.1555 12.9492 14.1555 13.1549 14.0184L14.6479 13.0281L16.1408 14.0184C16.3465 14.1555 16.6131 14.1555 16.8188 14.0184L18.3117 13.0281L19.8047 14.0184C20.0104 14.1555 20.277 14.1555 20.4826 14.0184L21.9756 13.0281L23.4686 14.0184C23.6742 14.1555 23.9408 14.1555 24.1465 14.0184L25.0301 13.4319V33.625H22.5926V34.8438H32.952C33.2871 34.8438 33.5613 34.5695 33.5613 34.2344V12.2969C33.5613 12.1141 33.4775 11.9465 33.3404 11.8322L35.1457 6.42405C35.6713 4.70256 35.1076 2.80588 33.6984 1.67092ZM17.5729 9.66135C17.6262 9.74514 17.6643 9.83655 17.6871 9.93557L17.2682 10.5526L16.3389 8.26741L17.1539 7.06389C16.9406 7.93987 17.0777 8.91487 17.5729 9.66135ZM13.3225 12.4416C13.4824 11.7942 13.3529 11.1162 12.9797 10.5678C12.6217 10.0498 12.0504 9.69182 11.7609 9.12815C11.6086 8.83108 11.5477 8.48831 11.5857 8.15315C11.6772 7.40666 12.2408 6.78206 12.3246 6.03557C12.3856 5.48713 12.1647 4.95393 12.0504 4.41311C11.7838 3.21721 12.5379 2.00608 13.8252 1.94514C14.4498 1.92229 15.0439 2.18889 15.44 2.66877C15.7904 3.10295 15.9504 3.67424 16.3008 4.11604C16.5598 4.44358 16.9102 4.67971 17.3063 4.79397C17.6947 4.90823 18.1518 4.92346 18.4107 5.23577C17.9613 5.55569 17.5957 5.97463 17.3443 6.46975L16.476 5.89084L15.7904 6.88108L14.7393 4.31409L13.6195 4.77112L14.6631 7.34573L13.4748 7.11721L13.2311 8.30549L15.1887 8.74729L16.1408 10.9867L14.9525 10.7582L14.8078 11.4742C14.8002 11.4819 13.6348 12.2131 13.3225 12.4416ZM15.44 12.1065L16.6969 12.3655L16.7807 12.5711L16.4531 12.7844L15.44 12.1065ZM23.301 12.4721L23.7732 12.1522L23.5981 12.6701L23.301 12.4721ZM26.2031 13.4319L27.0867 14.0184C27.2924 14.1555 27.559 14.1555 27.7647 14.0184L28.6482 13.4319V30.3192L26.2107 32.7567V13.4319H26.2031ZM32.2969 13.4319V32.7567L29.8594 30.3192V13.4319L30.743 14.0184C30.9486 14.1555 31.2152 14.1555 31.4209 14.0184L32.2969 13.4319ZM29.25 31.4389L31.4361 33.625H27.0639L29.25 31.4389ZM33.9422 6.03557L31.8703 12.2512L31.0781 12.7768L29.5852 11.7865C29.3795 11.6494 29.1129 11.6494 28.9072 11.7865L27.4143 12.7768C27.4143 12.7768 25.8908 11.7637 25.8756 11.7561C25.6775 11.6494 25.4338 11.6647 25.251 11.7865L25.1596 11.8475L27.757 4.06272C28.077 3.11057 28.8539 2.39456 29.8975 2.08225C30.9791 1.76233 32.1141 1.96038 32.9367 2.61545C33.9498 3.43811 34.3535 4.80159 33.9422 6.03557Z" fill="black"/>
<path d="M28.5291 5.61169L32.1868 5.00333L32.3866 6.20501L28.729 6.81338L28.5291 5.61169Z" fill="black"/>
<path d="M27.3093 9.26599L30.9669 8.65762L31.1668 9.85931L27.5092 10.4677L27.3093 9.26599Z" fill="black"/>
<path d="M19.9951 27.5313C19.3248 27.5237 18.6773 27.7903 18.2051 28.2702C18.1975 28.2626 18.1898 28.255 18.1822 28.2397L18.0832 27.836C18.0832 27.8284 18.0832 27.8284 18.0756 27.8208C17.8395 26.9905 18.3117 25.9393 18.7231 25.528C18.9059 25.3452 18.9516 25.0557 18.8373 24.8272L18.2279 23.6085C18.0756 23.3038 17.71 23.1819 17.4129 23.3343C15.7066 24.1798 14.6326 25.9241 14.6402 27.8208V28.1483C14.4955 28.0417 14.3356 27.9427 14.1756 27.8513C12.9949 27.219 11.4639 27.6151 10.7631 28.7272C10.3594 29.3747 10.2527 30.2507 10.4813 31.02L11.2734 33.6632C10.2223 35.7731 7.66289 36.6339 5.55293 35.5903C3.46582 34.5544 2.59746 32.0331 3.60293 29.9307C3.61817 29.9003 3.6334 29.8698 3.64864 29.8393L3.67149 31.9112L4.89024 31.896L4.85215 29.3595L7.28203 29.4737L7.34297 28.255L5.22539 28.1559C5.85762 27.7675 6.58887 27.5542 7.32774 27.5313C8.21133 27.5085 9.07969 27.7598 9.81094 28.255L10.4889 27.2419C9.11778 26.3202 7.40391 26.0688 5.82715 26.5487L6.08614 25.9393L4.96641 25.4595L4.12852 27.4095C4.06758 27.4552 3.99903 27.5085 3.93809 27.5618L2.0795 25.7032L1.21875 26.5639L3.09258 28.4378C3.0545 28.4911 3.01641 28.5444 2.97832 28.5977L0.98262 29.4509L1.4625 30.5706L2.16328 30.2659C1.31778 33.1757 2.99356 36.2149 5.90332 37.0604C7.82285 37.6165 9.89473 37.0833 11.3115 35.6665C11.4563 35.5218 11.5934 35.3618 11.7229 35.2018L11.8447 35.5979C12.218 36.8471 13.5281 37.5479 14.7773 37.1747C14.9525 37.1214 15.1125 37.0528 15.2725 36.9614C16.0113 37.3727 16.9102 37.3727 17.649 36.9614C18.7764 37.6089 20.216 37.2128 20.8635 36.0854C20.9549 35.9331 21.0234 35.7655 21.0768 35.5903L22.4479 31.0124C22.5316 30.7077 22.5697 30.3878 22.5545 30.0679C22.5469 28.6739 21.4043 27.5313 19.9951 27.5313ZM17.4205 24.7358L17.5576 25.01C17.0777 25.6727 16.735 26.6401 16.7959 27.5542C16.6207 27.5237 16.1408 27.5009 15.8514 27.6075C15.9123 26.4573 16.4912 25.4061 17.4205 24.7358ZM13.0102 35.2552L11.6391 30.6772C11.5096 30.243 11.5705 29.7251 11.7838 29.3823C12.1342 28.8186 12.9797 28.6054 13.5891 28.9329C13.8785 29.0852 13.9928 29.1919 14.107 29.3366C14.0537 29.5423 14.0232 29.7555 14.0232 29.9688V34.8438C14.0232 35.2628 14.1299 35.6741 14.3356 36.0397C13.749 36.1616 13.1777 35.8188 13.0102 35.2552ZM15.2344 34.8438V29.9688C15.2344 29.2985 15.7828 28.7501 16.4531 28.7501C17.1234 28.7501 17.6719 29.2985 17.6719 29.9688V34.8438C17.6719 35.5141 17.1234 36.0626 16.4531 36.0626C15.7828 36.0626 15.2344 35.5141 15.2344 34.8438ZM21.2748 30.6772L19.9037 35.2552C19.7361 35.8188 19.1572 36.1616 18.5783 36.0397C18.784 35.6741 18.8906 35.2628 18.8906 34.8438V29.9688C18.8906 29.7784 18.8678 29.5956 18.8221 29.4128C18.982 29.169 19.3477 28.7501 19.9875 28.7501C20.7264 28.7501 21.3205 29.3518 21.3205 30.0831C21.3357 30.2811 21.3205 30.4868 21.2748 30.6772Z" fill="black"/>
</svg>
